HIERARCHY
ROOT hip
{
	OFFSET	0.00  0.00  0.00 
	CHANNELS 6 Xposition Yposition Zposition Xrotation Zrotation Yrotation
	JOINT waist
	{
		OFFSET	0.000000 2.191865 -0.079388
		CHANNELS 3 Xrotation Zrotation Yrotation
		JOINT abdomen
		{
			OFFSET	0.000000 2.770984 0.119082
			CHANNELS 3 Xrotation Zrotation Yrotation
			JOINT chest
			{
				OFFSET	0.000000 2.879627 -0.290598
				CHANNELS 3 Xrotation Zrotation Yrotation
				JOINT neck
				{
					OFFSET	0.000000 12.342733 -1.613748
					CHANNELS 3 Xrotation Zrotation Yrotation
					JOINT head
					{
						OFFSET	0.000000 4.485597 1.807195
						CHANNELS 3 Xrotation Zrotation Yrotation
						End Site
						{
							OFFSET 0.000000 7.191734 2.024398
						}
					}
				}
				JOINT lCollar
				{
					OFFSET	1.858774 10.237258 -1.915852
					CHANNELS 3 Zrotation Yrotation Xrotation
					JOINT lShldr
					{
						OFFSET	6.103279 0.000102 -0.038601
						CHANNELS 3 Zrotation Yrotation Xrotation
						JOINT lForeArm
						{
							OFFSET	10.574100 -0.365985 -0.655940
							CHANNELS 3 Zrotation Yrotation Xrotation
							JOINT lHand
							{
								OFFSET	13.213392 -0.641131 0.276866
								CHANNELS 3 Zrotation Yrotation Xrotation
								JOINT lThumb1
								{
									OFFSET	1.920964 -1.225712 1.722395
									CHANNELS 3 Zrotation Yrotation Xrotation
									JOINT lThumb2
									{
										OFFSET	0.248544 -0.143036 0.768265
										CHANNELS 3 Zrotation Yrotation Xrotation
										JOINT lThumb3
										{
											OFFSET	0.628484 -0.225174 0.508305
											CHANNELS 3 Zrotation Yrotation Xrotation
											End Site
											{
												OFFSET 0.831712 -0.207978 0.609962
											}
										}
									}
								}
								JOINT lIndex1
								{
									OFFSET	5.093442 -0.710319 1.829884
									CHANNELS 3 Zrotation Yrotation Xrotation
									JOINT lIndex2
									{
										OFFSET	0.889470 -0.051998 0.127073
										CHANNELS 3 Zrotation Yrotation Xrotation
										JOINT lIndex3
										{
											OFFSET	0.889570 -0.155981 0.127073
											CHANNELS 3 Zrotation Yrotation Xrotation
											End Site
											{
												OFFSET 0.797115 -0.294470 0.076252
											}
										}
									}
								}
								JOINT lMid1
								{
									OFFSET	5.154641 -0.519844 0.864111
									CHANNELS 3 Zrotation Yrotation Xrotation
									JOINT lMid2
									{
										OFFSET	0.928821 -0.051992 0.050831
										CHANNELS 3 Zrotation Yrotation Xrotation
										JOINT lMid3
										{
											OFFSET	0.984253 -0.311865 0.050831
											CHANNELS 3 Zrotation Yrotation Xrotation
											End Site
											{
												OFFSET 0.779717 -0.606438 -0.050831
											}
										}
									}
								}
								JOINT lRing1
								{
									OFFSET	4.924408 -0.754930 -0.235503
									CHANNELS 3 Zrotation Yrotation Xrotation
									JOINT lRing2
									{
										OFFSET	0.981624 -0.036924 -0.108278
										CHANNELS 3 Zrotation Yrotation Xrotation
										JOINT lRing3
										{
											OFFSET	0.805613 -0.205247 -0.041717
											CHANNELS 3 Zrotation Yrotation Xrotation
											End Site
											{
												OFFSET 0.667431 -0.470481 -0.035991
											}
										}
									}
								}
								JOINT lPinky1
								{
									OFFSET	4.535460 -0.816635 -1.006206
									CHANNELS 3 Zrotation Yrotation Xrotation
									JOINT lPinky2
									{
										OFFSET	0.690596 -0.064334 -0.168800
										CHANNELS 3 Zrotation Yrotation Xrotation
										JOINT lPinky3
										{
											OFFSET	0.598039 -0.111176 -0.071973
											CHANNELS 3 Zrotation Yrotation Xrotation
											End Site
											{
												OFFSET 0.422025 -0.290925 -0.035981
											}
										}
									}
								}
							}
						}
					}
				}
				JOINT rCollar
				{
					OFFSET	-1.858774 10.237258 -1.915852
					CHANNELS 3 Zrotation Yrotation Xrotation
					JOINT rShldr
					{
						OFFSET	-6.103279 0.000102 -0.038601
						CHANNELS 3 Zrotation Yrotation Xrotation
						JOINT rForeArm
						{
							OFFSET	-10.574100 -0.365985 -0.655940
							CHANNELS 3 Zrotation Yrotation Xrotation
							JOINT rHand
							{
								OFFSET	-13.213392 -0.641131 0.276866
								CHANNELS 3 Zrotation Yrotation Xrotation
								JOINT rIndex1
								{
									OFFSET	-5.093442 -0.710319 1.829884
									CHANNELS 3 Zrotation Yrotation Xrotation
									JOINT rIndex2
									{
										OFFSET	-0.889470 -0.051998 0.127073
										CHANNELS 3 Zrotation Yrotation Xrotation
										JOINT rIndex3
										{
											OFFSET	-0.889570 -0.155981 0.127073
											CHANNELS 3 Zrotation Yrotation Xrotation
											End Site
											{
												OFFSET -0.797115 -0.294470 0.076252
											}
										}
									}
								}
								JOINT rThumb1
								{
									OFFSET	-1.920964 -1.225712 1.722395
									CHANNELS 3 Zrotation Yrotation Xrotation
									JOINT rThumb2
									{
										OFFSET	-0.248544 -0.143036 0.768265
										CHANNELS 3 Zrotation Yrotation Xrotation
										JOINT rThumb3
										{
											OFFSET	-0.628484 -0.225174 0.508305
											CHANNELS 3 Zrotation Yrotation Xrotation
											End Site
											{
												OFFSET -0.831712 -0.207978 0.609962
											}
										}
									}
								}
								JOINT rMid1
								{
									OFFSET	-5.154641 -0.519844 0.864111
									CHANNELS 3 Zrotation Yrotation Xrotation
									JOINT rMid2
									{
										OFFSET	-0.928821 -0.051992 0.050831
										CHANNELS 3 Zrotation Yrotation Xrotation
										JOINT rMid3
										{
											OFFSET	-0.984253 -0.311865 0.050831
											CHANNELS 3 Zrotation Yrotation Xrotation
											End Site
											{
												OFFSET -0.779717 -0.606438 -0.050831
											}
										}
									}
								}
								JOINT rRing1
								{
									OFFSET	-4.924408 -0.754930 -0.235503
									CHANNELS 3 Zrotation Yrotation Xrotation
									JOINT rRing2
									{
										OFFSET	-0.981624 -0.036924 -0.108278
										CHANNELS 3 Zrotation Yrotation Xrotation
										JOINT rRing3
										{
											OFFSET	-0.805613 -0.205247 -0.041717
											CHANNELS 3 Zrotation Yrotation Xrotation
											End Site
											{
												OFFSET -0.667431 -0.470481 -0.035991
											}
										}
									}
								}
								JOINT rPinky1
								{
									OFFSET	-4.535460 -0.816635 -1.006206
									CHANNELS 3 Zrotation Yrotation Xrotation
									JOINT rPinky2
									{
										OFFSET	-0.690596 -0.064334 -0.168800
										CHANNELS 3 Zrotation Yrotation Xrotation
										JOINT rPinky3
										{
											OFFSET	-0.598039 -0.111176 -0.071973
											CHANNELS 3 Zrotation Yrotation Xrotation
											End Site
											{
												OFFSET -0.422025 -0.290925 -0.035981
											}
										}
									}
								}
							}
						}
					}
				}
			}
		}
	}
	JOINT lThigh
	{
		OFFSET	5.761895 -0.730553 0.000101
		CHANNELS 3 Xrotation Zrotation Yrotation
		JOINT lShin
		{
			OFFSET	-1.171020 -18.459274 1.627449
			CHANNELS 3 Xrotation Zrotation Yrotation
			JOINT lFoot
			{
				OFFSET	-0.883715 -16.872776 -3.357785
				CHANNELS 3 Xrotation Zrotation Yrotation
				JOINT lToe
				{
					OFFSET	1.287613 -2.778491 2.836049
					CHANNELS 3 Xrotation Yrotation Zrotation
					End Site
					{
						OFFSET 1.362641 -0.436631 3.828194
					}
				}
			}
		}
	}
	JOINT rThigh
	{
		OFFSET	-5.761895 -0.730553 0.000101
		CHANNELS 3 Xrotation Zrotation Yrotation
		JOINT rShin
		{
			OFFSET	1.171020 -18.459274 1.627449
			CHANNELS 3 Xrotation Zrotation Yrotation
			JOINT rFoot
			{
				OFFSET	0.883715 -16.872776 -3.357785
				CHANNELS 3 Xrotation Zrotation Yrotation
				JOINT rToe
				{
					OFFSET	-1.287613 -2.778491 2.836049
					CHANNELS 3 Xrotation Yrotation Zrotation
					End Site
					{
						OFFSET -1.362641 -0.436631 3.828194
					}
				}
			}
		}
	}
}
MOTION
Frames:     5
Frame Time: 0.033333
0.000000 40.137459 -0.646068 16.369040 -3.466831 -0.571088 -11.699714 1.151289 -0.049280 -1.231333 2.854205 -6.275184 14.700793 6.258535 -5.157463 5.876668 0.797057 -0.321265 -13.623164 -1.368774 10.435317 3.222390 -8.580719 -9.411557 -69.340141 -16.671755 38.588444 -18.468298 -99.213005 13.149890 25.428988 -8.870917 -5.289465 6.880917 -16.043959 77.497833 -17.344551 11.547093 21.508692 -84.087845 144.016769 -46.444828 -73.970016 6.148981 8.549695 -83.159004 6.927445 9.284189 -77.888748 2.674858 5.567848 -72.966629 2.818428 3.659388 -83.130119 2.004729 3.938647 -68.084068 -2.252784 -4.419521 -78.290688 -3.490366 -5.161092 -79.883453 -1.341504 -2.962462 -61.041275 -0.190925 -2.338451 -79.853981 -10.704345 -14.945024 -86.991852 -5.646980 -7.338652 -54.304794 -1.371886 -4.286859 10.949709 -7.452700 1.862002 64.171547 -13.138538 12.622253 20.837841 99.787766 14.974684 -22.815371 6.115862 -4.826688 73.680283 -7.648779 8.655273 83.921272 -7.036973 9.296877 77.226059 -2.128577 5.350715 -4.848785 16.979895 81.497459 16.709347 -13.393351 22.600552 83.863655 -143.963226 -46.374752 72.370338 -4.392508 3.737256 83.310265 -2.101511 3.959409 68.108192 2.854227 -4.903771 77.115021 1.756852 -5.127863 80.482300 1.291182 -2.961157 60.468357 0.906930 -2.848712 78.161102 9.369057 -14.604164 87.672707 5.764802 -7.367140 84.717285 2.410623 -5.154559 -12.536508 10.786366 -3.307868 70.321426 2.413203 -2.718851 116.946709 21.505524 -3.595493 -2.096883 -0.152102 -8.741387 -38.055614 3.577403 -11.358087 0.472585 -1.055193 -3.079603 0.665086 7.026772 -8.605338 -1.345913 -7.464134 7.735515 
0.000000 40.137459 -0.646068 16.565744 -4.648520 -1.120014 -11.689898 1.092749 -0.046775 -1.001136 3.650375 -3.442997 13.749460 8.527172 -3.556689 5.711488 0.637397 -0.351676 -13.550288 -3.802220 8.282785 2.503009 -5.632311 -8.280562 -69.472252 -15.275284 42.330845 -25.355232 -96.455620 20.086628 27.230244 -10.187119 -5.535268 6.934674 -16.022278 77.471474 -17.322836 11.535125 21.482534 -84.088631 144.029373 -46.439213 -73.913704 6.131454 8.546673 -83.149368 6.926109 9.283923 -77.887703 2.683964 5.571218 -72.918457 2.806165 3.657980 -83.120361 2.004261 3.938515 -68.085594 -2.237428 -4.407548 -78.240356 -3.505440 -5.160198 -79.873711 -1.341033 -2.962317 -61.051491 -0.183262 -2.333158 -79.823166 -10.706837 -14.946741 -86.972488 -5.644703 -7.338337 -54.316139 -1.356299 -4.276370 9.463615 -5.052092 0.681428 64.265640 -10.422118 12.773374 18.402332 100.918381 13.250317 -23.299923 5.572736 -4.779580 73.732178 -7.498417 8.643434 83.834534 -7.024927 9.294641 77.287971 -2.188934 5.373343 -5.041893 16.893791 81.094673 16.789579 -13.208003 22.501574 83.882095 -143.986954 -46.373276 72.447968 -4.230541 3.728405 83.281616 -2.090820 3.955711 68.114815 2.792862 -4.855880 77.254791 1.945878 -5.131635 80.413498 1.297313 -2.962574 60.521858 0.836751 -2.799637 78.350220 9.513684 -14.637405 87.595253 5.755663 -7.365984 84.717285 2.410623 -5.154559 -22.333773 10.162378 -1.065309 86.536827 2.466449 -2.793839 122.198593 21.540794 -3.314327 -1.905257 1.395682 -8.552149 -38.897198 5.071502 -10.872968 12.481391 -2.142599 -2.230034 2.151696 -1.040559 -4.122342 0.833242 -8.125261 8.377651 
0.000000 40.137459 -0.646068 17.386913 -5.526709 -2.249427 -11.670336 1.053722 -0.045104 -1.077896 3.932446 -1.700719 12.200954 10.472313 -0.021418 5.576211 0.113679 -0.214267 -13.216966 -5.524858 6.765920 1.948508 -2.732730 -7.021226 -69.411156 -13.817895 45.738605 137.788712 -86.057571 -143.846558 29.327396 -11.774946 -5.829887 6.716243 -16.128817 77.946953 -17.184307 11.803530 21.595125 -84.051819 143.981903 -46.442219 -73.837173 6.317808 8.559319 -83.245728 6.939476 9.286575 -77.808662 2.603740 5.540781 -72.800415 2.995307 3.667572 -83.139275 2.014488 3.941729 -68.086884 -2.322284 -4.473744 -78.044243 -3.291665 -5.155032 -79.952805 -1.325904 -2.958666 -60.977646 -0.276775 -2.398305 -79.540939 -10.539403 -14.907209 -87.087326 -5.667882 -7.341986 -54.204159 -1.496138 -4.370425 7.644082 -2.104882 -0.760898 63.902222 -7.187000 12.977005 15.764759 102.416748 11.410546 -23.554647 4.850032 -4.701014 73.800842 -7.301143 8.629221 83.717293 -7.018360 9.293315 77.396393 -2.271584 5.404790 -5.300245 16.778627 80.576088 16.907764 -12.938375 22.360081 83.909363 -144.016235 -46.373871 72.567299 -4.021915 3.717525 83.243210 -2.079663 3.952243 68.114098 2.708073 -4.789207 77.439613 2.178180 -5.136410 80.325203 1.302499 -2.963700 60.596867 0.735308 -2.728763 78.612991 9.715765 -14.686574 87.480408 5.732448 -7.362459 84.717285 2.410623 -5.154559 -30.786814 11.801402 1.717733 95.385689 2.029124 -2.651087 119.742661 23.539108 -2.489909 -1.287204 2.897679 -8.522768 -36.844608 7.034245 -9.923903 24.384291 -2.902260 -1.517902 3.843491 -3.981572 -2.923854 1.655750 -8.587709 8.583465 
0.000000 40.137459 -0.646068 19.085197 -5.517090 -3.323643 -11.670291 0.995182 -0.042599 -1.455382 3.500904 -0.022856 11.061764 11.120330 2.002011 5.566318 -0.257818 -0.117191 -10.162285 -6.059552 4.427538 1.510473 0.049773 -5.684109 -68.812958 -11.788675 48.649902 69.941139 -87.549675 -100.331543 22.098772 -22.130095 -6.930856 21.573393 -8.847357 34.222610 -0.617491 36.594154 48.136482 -68.162338 115.927650 -53.147888 -72.950073 13.223252 9.157183 -88.019676 7.130478 9.303257 -73.288727 -0.823412 4.232477 -70.416122 10.507125 4.114853 -85.044815 2.339363 4.040658 -66.968277 -5.393804 -6.897957 -73.207550 5.482297 -5.040831 -83.530685 -1.339230 -2.965475 -57.355213 -3.693030 -4.776959 -72.510239 -3.187161 -13.212705 -91.080154 -6.535927 -7.472073 -49.958500 -6.372144 -7.684177 5.678316 1.066921 -2.330907 63.614117 -3.647913 13.217557 13.590846 104.008156 9.822821 -23.318651 4.040551 -4.591055 73.875175 -7.065285 8.612802 83.592018 -7.000975 9.290016 77.503738 -2.363346 5.439601 -5.610359 16.637352 79.927315 17.014729 -12.649082 22.193682 83.943047 -144.013275 -46.387592 72.688248 -3.784086 3.704366 83.214561 -2.068973 3.948902 68.105972 2.599854 -4.703800 77.658897 2.462617 -5.141952 80.227158 1.307213 -2.964677 60.692265 0.618537 -2.647438 78.913109 9.926929 -14.736192 87.365570 5.709237 -7.357930 84.717285 2.410623 -5.154559 -35.162518 11.725021 5.045760 97.361061 1.872034 -2.597846 109.870415 25.674969 -1.449738 0.405280 4.832969 -8.794738 -31.289316 6.457686 -8.086782 26.134596 -2.424482 -1.534066 5.271914 -2.716042 -3.999902 1.268604 -9.143030 8.360723 
0.000000 40.137459 -0.646068 21.036112 -4.157597 -3.425909 -11.689703 0.819562 -0.035082 -2.121297 2.428592 1.574923 10.298430 10.412497 4.287943 5.584383 -0.707181 0.021813 -8.697453 -6.174182 1.134658 1.150197 2.637134 -4.318233 -68.148331 -8.985699 50.890823 -125.638115 -93.356918 132.675034 39.151455 -7.796441 -5.710444 10.677262 -14.103499 70.988449 -19.273863 7.443231 19.813709 -84.814163 145.241119 -46.232471 -73.885376 3.067600 8.312554 -81.906250 6.637559 9.222323 -78.750771 3.676426 5.947066 -73.543449 -0.246580 3.488484 -82.966911 1.801196 3.873964 -67.756111 -0.904912 -3.364389 -80.183655 -6.672016 -5.222955 -78.689407 -1.530371 -3.007321 -61.839581 1.365541 -1.250494 -82.813492 -12.884378 -15.438873 -85.634918 -5.429617 -7.301119 -56.164757 0.870538 -2.783899 3.645169 4.326708 -3.950256 63.258572 0.035972 13.544317 11.963786 105.710541 8.427659 -22.596107 3.270012 -4.464993 73.948006 -6.839066 8.595892 83.465149 -6.993086 9.288361 77.611015 -2.455109 5.474411 -5.933436 16.488943 79.263527 17.109631 -12.366768 22.025354 83.975883 -143.997711 -46.412670 72.809700 -3.536524 3.691357 83.176155 -2.057816 3.945430 68.106613 2.499693 -4.625205 77.878998 2.737345 -5.147943 80.119904 1.302008 -2.963093 60.777744 0.501451 -2.565677 79.201019 10.145205 -14.786427 87.270096 5.688312 -7.354653 84.717285 2.410623 -5.154559 -42.219822 10.865989 6.906306 94.614433 1.835874 -2.620054 96.450844 25.363953 -0.334461 2.712093 7.360857 -9.171077 -22.784355 3.593677 -4.782178 20.370779 -1.062187 -2.078629 31.151411 -10.065826 -2.972058 -15.183752 -10.218684 2.576786 
